<svg xmlns="http://www.w3.org/2000/svg" width="15.364" height="16.294" viewBox="0 0 15.364 16.294"><defs><style>.a{fill:none;stroke:#333;stroke-linecap:round;stroke-linejoin:round;stroke-width:1.5px;}</style></defs><path class="a" d="M9.92,15.092C6.406,16.146,6.406,13.335,5,12.983M14.839,17.2V14.48c0-.056.007-.12.007-.186a2.36,2.36,0,0,0-.669-1.649h0c2.207-.246,4.526-1.082,4.526-4.92a3.81,3.81,0,0,0-1.056-2.637h0a3.5,3.5,0,0,0,.225-1.246,3.55,3.55,0,0,0-.3-1.427l.009.023s-.829-.246-2.748,1.04a9.181,9.181,0,0,0-2.46-.328A9.4,9.4,0,0,0,9.854,3.5l.066-.016C8,2.2,7.172,2.441,7.172,2.441a3.5,3.5,0,0,0-.288,1.4,3.554,3.554,0,0,0,.233,1.27l-.008-.024A3.809,3.809,0,0,0,6.054,7.727v.021h0c0,3.809,2.319,4.646,4.526,4.92a2.36,2.36,0,0,0-.667,1.647c0,.058,0,.116.006.174V17.2" transform="translate(-4.09 -1.656)"/></svg>