<svg xmlns="http://www.w3.org/2000/svg" width="350" height="154" viewBox="0 0 350 154"><g transform="translate(-1430 -159)"><g transform="translate(588.711 -474.242)"><g transform="translate(1046.17 685.897)"><rect width="95.456" height="85.38" transform="translate(0 0)" fill="#333"/></g><g transform="translate(1132.836 685.897)"><path d="M1437.133,698.4h0a8.816,8.816,0,0,1-8.791-8.791V613.344a8.816,8.816,0,0,1,8.791-8.791h0a8.817,8.817,0,0,1,8.791,8.791v76.263A8.817,8.817,0,0,1,1437.133,698.4Z" transform="translate(-1428.342 -604.553)" fill="#4b4b4b"/></g><g transform="translate(984.31 698.202)"><path d="M890.411,655.131s-21.99-2.076-28.909,7.692-14.855,37.361-14.855,37.361l-11.11-26.861-15.445,4.884s11.172,37.116,17.154,48.959,15.438,7.692,18.463,2.808,10.839-20.512,10.839-20.512v22.709l68.006-.61V700.793l7.081,15.75,25.42.866s-14.31-47.587-22.856-55.889c-7.842-7.618-34.743-5.9-34.743-5.9Z" transform="translate(-820.092 -654.946)" fill="#4078c0"/></g><g transform="translate(1034.375 661.353)"><path d="M1031.032,504.042s-8.367,2.93-5.193,14.407,22.872,4.4,22.872,4.4Z" transform="translate(-1025.12 -504.042)" fill="#fff1e4"/></g><g transform="translate(940.092 765.416)"><path d="M721.707,930.2H641.939a2.93,2.93,0,0,0-2.93,2.93h0a2.93,2.93,0,0,0,2.93,2.93h79.768a2.93,2.93,0,0,0,2.93-2.93h0A2.93,2.93,0,0,0,721.707,930.2Z" transform="translate(-639.009 -930.202)" fill="#afafaf"/></g><g transform="translate(909.844 764.602)"><rect width="84.294" height="6.674" rx="3.337" transform="translate(0)" fill="#afafaf"/></g><g transform="translate(991.33 703.973)"><path d="M862.333,686.559c.346-11.285-3.02-7.292-6.746-7.292a7.314,7.314,0,0,0,0,14.583C859.313,693.85,862.209,690.584,862.333,686.559Z" transform="translate(-848.841 -678.581)" fill="#f7b394"/></g><g transform="translate(1041.042 644.098)"><path d="M1055.347,443.632a36.2,36.2,0,0,0-2.808,8.913c-.647,4.407,1.587,17.216,2.32,18.131s38.582,0,38.582,0V442.411s-14.529-9.035-15.262-9.035S1055.347,443.632,1055.347,443.632Z" transform="translate(-1052.422 -433.376)" fill="#f7b394"/></g><g transform="translate(1039.267 763.34)"><path d="M1059.726,921.7h-6.636a7.936,7.936,0,0,0-7.936,7.936h22.508A7.936,7.936,0,0,0,1059.726,921.7Z" transform="translate(-1045.154 -921.702)" fill="#f9f6fb"/></g><g transform="translate(891.817 726.834)"><path d="M518.243,772.2H444.337a2.955,2.955,0,0,0-2.62,4.425l20.065,34.156h80.874l-21.793-37.1A3.034,3.034,0,0,0,518.243,772.2Z" transform="translate(-441.311 -772.202)" fill="#c8c2d4"/></g><g transform="translate(891.092 726.834)"><path d="M512.821,772.2h-71.55a2.954,2.954,0,0,0-2.536,4.425l19.425,34.156h78.3l-21.1-37.1A2.919,2.919,0,0,0,512.821,772.2Z" transform="translate(-438.342 -772.202)" fill="#dbdbdb"/></g><g transform="translate(933.98 742.964)"><ellipse cx="6.07" cy="4.894" rx="6.07" ry="4.894" transform="translate(0 0)" fill="#fff"/></g><g transform="translate(1054.086 694.968)"><path d="M1105.842,641.7v5.25s7.448,8.18,21.366,0V641.7Z" transform="translate(-1105.842 -641.702)" fill="#f7b394"/></g><g transform="translate(1003.173 767.451)"><rect width="19.779" height="1.791" fill="#fff"/></g><g transform="translate(996.855 767.451)"><rect width="3.602" height="1.791" fill="#fff"/></g><g transform="translate(1041.795 677.081)"><g transform="translate(0 0)"><path d="M1074.169,658.017l1.462-.1a149.474,149.474,0,0,0-10.19-45.162c-.57-1.438-1.172-2.893-1.755-4.3-2.265-5.473-4.607-11.131-5.535-17.01-.781-4.953-1.422-20.172-1.088-22.81l-1.453-.184c-.375,2.954.362,18.581,1.095,23.222.955,6.05,3.331,11.791,5.628,17.342.581,1.4,1.181,2.852,1.746,4.28A148,148,0,0,1,1074.169,658.017Z" transform="translate(-1055.508 -568.452)" fill="#fff1e4"/></g></g><g transform="translate(1044.861 656.795)"><g transform="translate(19.047)"><path d="M1154,485.376h-6.1a1.831,1.831,0,0,0,0,3.663h6.1a1.831,1.831,0,1,0,0-3.663Z" transform="translate(-1146.064 -485.376)" fill="#4f333e"/></g><path d="M1076,485.376h-6.1a1.831,1.831,0,1,0,0,3.663h6.1a1.831,1.831,0,1,0,0-3.663Z" transform="translate(-1068.064 -485.376)" fill="#4f333e"/></g><g transform="translate(1031.992 633.242)"><path d="M1025.627,417.6s-2.808,17.093,7.326,16.971,22.831.906,27.1-1.257,1.709-20.964,0-24.627-11.965-6.837-20.756,0c-6.55,5.094-10.438,9.558-15.645,8.992,0,0-3.794-.061-5.966-2.521-3.6-4.076-1.953-11.6-1.953-11.6s6.959,2.808,11.6-4.64,23.224-16.175,38.093-3.785c11.721,9.767,8.3,38.915,5.616,47.785s-13.8,11.064-30.523,10.209-16.116-8.913-16.361-19.169-.505-17.826-.505-17.826h1.97Z" transform="translate(-1015.362 -388.918)" fill="#5c3b48"/></g><g transform="translate(1058.79 678.234)"><path d="M1126.553,660.57l-1.446-.236a149.472,149.472,0,0,1,14.436-43.989c.7-1.378,1.442-2.769,2.155-4.114,2.775-5.233,5.645-10.643,7.127-16.407,1.249-4.857,3.333-19.946,3.251-22.6l1.464-.045c.092,2.977-2.126,18.462-3.3,23.013-1.525,5.932-4.436,11.421-7.251,16.729-.711,1.341-1.446,2.727-2.145,4.094A148.006,148.006,0,0,0,1126.553,660.57Z" transform="translate(-1125.107 -573.174)" fill="#fff1e4"/></g><g transform="translate(1040.286 667.967)"><path d="M1082.966,531.126h-11.233a2.382,2.382,0,0,0-2.378,2.328,3.759,3.759,0,0,0-4.032.054h0a2.384,2.384,0,0,0-2.381-2.381H1051.71a2.384,2.384,0,0,0-2.381,2.381v2.686a2.384,2.384,0,0,0,2.381,2.381h11.232a2.384,2.384,0,0,0,2.381-2.381v-1.1a2.6,2.6,0,0,1,3.8-.326.645.645,0,0,0,.23.131v1.291a2.384,2.384,0,0,0,2.381,2.381h11.233a2.384,2.384,0,0,0,2.381-2.381v-2.686A2.384,2.384,0,0,0,1082.966,531.126Zm-19.108,5.067a.917.917,0,0,1-.916.916H1051.71a.917.917,0,0,1-.916-.916v-2.686a.917.917,0,0,1,.916-.916h11.232a.916.916,0,0,1,.916.916Zm20.023,0a.917.917,0,0,1-.916.916h-11.233a.917.917,0,0,1-.916-.916v-2.686a.917.917,0,0,1,.916-.916h11.233a.917.917,0,0,1,.916.916Z" transform="translate(-1049.329 -531.126)" fill="#333031"/></g><g transform="translate(1055.152 684.55)"><path d="M1115.072,599.212a2.914,2.914,0,0,1-3.438,0c-1.039-.714-2.017.979-.986,1.687a4.815,4.815,0,0,0,5.41,0C1117.086,600.191,1116.11,598.5,1115.072,599.212Z" transform="translate(-1110.209 -599.039)" fill="#ec9589"/></g><g transform="translate(1046.335 664.542)"><g transform="translate(19.777 0)"><path d="M1158.277,517.555a.914.914,0,0,1-1.558.015c-.814-.961-2.189.427-1.381,1.381a2.868,2.868,0,0,0,4.626-.41C1160.64,517.476,1158.95,516.495,1158.277,517.555Z" transform="translate(-1155.092 -517.099)" fill="#333031"/></g><g transform="translate(0 0)"><path d="M1077.287,517.555a.914.914,0,0,1-1.558.015c-.814-.961-2.19.427-1.382,1.381a2.868,2.868,0,0,0,4.626-.41C1079.649,517.476,1077.959,516.495,1077.287,517.555Z" transform="translate(-1074.102 -517.099)" fill="#333031"/></g></g><g transform="translate(1044.861 635.912)"><path d="M1068.064,405.941s24.012-7.751,33.861,5.6c3.933,5.331.57,32.233,4.721,33.128,5.905,1.274,13.186-.977,15.3-7.57s-1.546-14.163-10.663-16.36c0,0-2.36-28.319-38.337-19A16.73,16.73,0,0,0,1068.064,405.941Z" transform="translate(-1068.064 -399.853)" fill="#6cc644"/></g><g transform="translate(1049.582 756.753)"><path d="M1114.978,895s-15.416-1.424-22.009,2.157-5.5,12.087-5.5,12.087h17.826s7.407.488,10.826-2.93S1114.978,895,1114.978,895Z" transform="translate(-1087.399 -894.724)" fill="#f7b394"/></g><g transform="translate(981.441 699.411)"><path d="M0,0H18.65a0,0,0,0,1,0,0V13.7a9.325,9.325,0,0,1-9.325,9.325h0A9.325,9.325,0,0,1,0,13.7V0A0,0,0,0,1,0,0Z" fill="#bd2c00"/></g><g transform="translate(1072.766 752.718)"><path d="M1231.668,878.2h-40.047a9.306,9.306,0,0,0-9.279,9.279h0a9.306,9.306,0,0,0,9.279,9.279h40.047a9.306,9.306,0,0,0,9.279-9.279h0A9.306,9.306,0,0,0,1231.668,878.2Z" transform="translate(-1182.342 -878.202)" fill="#5d98e3"/></g><g transform="translate(976.374 703.854)"><rect width="11.599" height="17.609" rx="5.799" transform="translate(0)" fill="#f7b394"/></g><g transform="translate(1000.09 702.294)"><path d="M887.083,671.7h0a2.373,2.373,0,0,0-2.366,2.366v4.06a2.372,2.372,0,0,0,2.366,2.365h0a2.372,2.372,0,0,0,2.365-2.365v-4.06A2.373,2.373,0,0,0,887.083,671.7Z" transform="translate(-884.717 -671.702)" fill="#f7b394"/></g><g transform="translate(981.441 697.213)"><ellipse cx="9.325" cy="2.221" rx="9.325" ry="2.221" transform="translate(0 0)" fill="#bd2c00"/></g><g transform="translate(983.163 698.444)"><ellipse cx="7.602" cy="1.811" rx="7.602" ry="1.811" transform="translate(0 0)" fill="#5e1a00"/></g><g transform="translate(855.766 765.416)"><path d="M342.512,930.2H296.617a2.943,2.943,0,0,0-2.943,2.942h0a2.942,2.942,0,0,0,2.943,2.942h45.895Z" transform="translate(-293.675 -930.202)" fill="#f8b787"/></g><g transform="translate(856.987 766.393)"><path d="M300.628,934.2h45.663v3.907H300.628a1.954,1.954,0,0,1-1.953-1.954h0A1.954,1.954,0,0,1,300.628,934.2Z" transform="translate(-298.675 -934.202)" fill="#fff1e4"/></g><g transform="translate(854.301 763.34)"><path d="M335.312,921.7h-46.6a1.038,1.038,0,0,0-1.038,1.038h0a1.038,1.038,0,0,0,1.038,1.038h46.6a1.038,1.038,0,0,0,1.038-1.038h0A1.038,1.038,0,0,0,335.312,921.7Z" transform="translate(-287.675 -921.702)" fill="#635259"/></g><g transform="translate(851.289 759.881)"><rect width="52.093" height="3.459" rx="1.73" fill="#7da49e"/></g><g transform="translate(871.697 721.072)"><rect width="2.008" height="33.331" transform="translate(0 0.196) rotate(-5.614)" fill="#34485d"/></g><g transform="translate(871.698 719.044)"><path d="M358.92,742.523l.79-2.224,1.208,2.028A1.427,1.427,0,0,1,358.92,742.523Z" transform="translate(-358.92 -740.299)" fill="#e9c3a0"/></g><g transform="translate(872.359 718.896)"><path d="M361.631,739.823l.033.334a.122.122,0,0,0,.243-.024l-.033-.334A.122.122,0,0,0,361.631,739.823Z" transform="translate(-361.63 -739.693)" fill="#34485d"/></g><g transform="translate(875.303 719.557)"><rect width="2.008" height="33.331" transform="matrix(0.994, 0.112, -0.112, 0.994, 3.731, 0)" fill="#eeb65c"/></g><g transform="translate(879.034 717.547)"><path d="M388.963,736.177l1.237-2.011.758,2.236A1.427,1.427,0,0,1,388.963,736.177Z" transform="translate(-388.963 -734.166)" fill="#e9c3a0"/></g><g transform="translate(880.111 717.398)"><path d="M393.414,733.661l-.038.334a.122.122,0,0,0,.243.027l.037-.334A.122.122,0,0,0,393.414,733.661Z" transform="translate(-393.375 -733.557)" fill="#34485d"/></g><g transform="translate(858.712 745.19)"><rect width="5.006" height="8.424" rx="2.503" transform="translate(2.616 0) rotate(18.094)" fill="#e8e5ed"/></g><g transform="translate(875.655 727.03)"><path d="M383.566,774.815l-8.44,22.057,2.16.827,8.44-22.057L385.8,773Z" transform="translate(-375.126 -773.004)" fill="#ec9589"/></g><g transform="translate(860.936 718.659)"><rect width="5.291" height="38.093" transform="translate(0 1.37) rotate(-15.006)" fill="#f8b787"/></g><g transform="translate(856.234 743.032)"><path d="M304.708,840.821v6.79h-6.831a2.286,2.286,0,0,0-2.286,2.286v5.488h33.955V840.821a2.286,2.286,0,0,0-2.286-2.285H306.994A2.286,2.286,0,0,0,304.708,840.821Z" transform="translate(-295.592 -838.536)" fill="#3a323d"/></g><g transform="translate(861.853 722.663)"><g transform="translate(0 0)"><rect width="2.592" height="0.573" transform="translate(0 0.671) rotate(-15.006)" fill="#bf8d68"/></g><g transform="translate(1.007 3.755)"><rect width="2.592" height="0.573" transform="translate(0 0.671) rotate(-15.006)" fill="#bf8d68"/></g><g transform="translate(2.013 7.51)"><rect width="2.592" height="0.573" transform="translate(0 0.671) rotate(-15.006)" fill="#bf8d68"/></g><g transform="translate(3.02 11.265)"><rect width="2.592" height="0.573" transform="translate(0 0.671) rotate(-15.006)" fill="#bf8d68"/></g><g transform="translate(4.026 15.02)"><rect width="2.592" height="0.573" transform="translate(0 0.671) rotate(-15.007)" fill="#bf8d68"/></g><g transform="translate(5.033 18.775)"><rect width="2.592" height="0.573" transform="translate(0 0.671) rotate(-15.006)" fill="#bf8d68"/></g></g><g transform="translate(978.89 644.098)" opacity="0.68"><g transform="translate(3.504 20.444)" opacity="0.61"><path d="M821.387,517.1s7.9,9.06-2.035,13.693-7.57,11.728-4.151,13.926,4.561,8.485,4.639,8.1c1.058-5.287-1.57-4.395-.936-10.619.448-4.4,2.564-3.256,8.262-9.849S821.387,517.1,821.387,517.1Z" transform="translate(-812.248 -517.099)" fill="#ccd0d6"/></g><g opacity="0.61"><path d="M804.192,466.95c-5.127-8.709-.814-15.14,2.055-21.733a12.8,12.8,0,0,0-.753-11.841s.9,4.19-5.535,15.748S804.192,466.95,804.192,466.95Z" transform="translate(-797.898 -433.376)" fill="#ccd0d6"/></g></g><g transform="translate(904.888 683.817)"><rect width="1.709" height="0.041" fill="#34485d"/></g></g><rect width="350" height="16" rx="8" transform="translate(1430 297)" fill="#333"/></g></svg>